# xmcd
#
# Track frame offsets:
#	150
#	10941
#	32795
#	42294
#	64230
#	74142
#	97250
#	108749
#	132624
#	142038
#	178819
#	209333
#	216459
#	217435
#	227538
#
# Disc length: 3114 seconds
#
# Revision: 5
# Processed by: cddbd v1.5.2PL0 Copyright (c) Steve Scherf et al.
# Submitted via: audiograbber 1.83.01
#
DISCID=050c280f
DTITLE=Aphex Twin - Drukqs - CD 1
DYEAR=2001
DGENRE=Electronic
TTITLE0=Jynweythek
TTITLE1=Vordhosbn
TTITLE2=Kladfvgbung MicshK
TTITLE3=Omgyjya-Switch7
TTITLE4=Strotha tynhe
TTITLE5=Gwely Mernans
TTITLE6=Bbydhyonchord
TTITLE7=Cock/ver10
TTITLE8=Avril 14th
TTITLE9=Mt Saint Michel and Saint Michaels mount
TTITLE10=Gwarek2
TTITLE11=Orban eq trx4
TTITLE12=Aussois
TTITLE13=Hy a Scullyas lyf a dhagrow
TTITLE14=Kesson dalef
EXTD=
EXTT0=
EXTT1=
EXTT2=
EXTT3=
EXTT4=
EXTT5=
EXTT6=
EXTT7=
EXTT8=
EXTT9=
EXTT10=
EXTT11=
EXTT12=
EXTT13=
EXTT14=
PLAYORDER=
